<svg width="22" height="22" viewBox="0 0 22 22" fill="none" xmlns="http://www.w3.org/2000/svg">
<path d="M17.5999 7.7C17.4892 6.39273 16.9472 5.15931 16.0592 4.19361C15.1711 3.2279 13.9874 2.58467 12.694 2.365C12.76 1.606 12.683 0 11 0C9.31695 0 9.23995 1.606 9.30595 2.365C8.01252 2.58467 6.82875 3.2279 5.9407 4.19361C5.05265 5.15931 4.51067 6.39273 4.39995 7.7V14.3L2.19995 16.5V17.6H19.7999V16.5L17.5999 14.3V7.7ZM11 22C11.8752 22 12.7145 21.6523 13.3334 21.0335C13.9523 20.4146 14.2999 19.5752 14.2999 18.7H7.69995C7.69995 19.5752 8.04763 20.4146 8.6665 21.0335C9.28537 21.6523 10.1247 22 11 22Z" fill="#A0B2C4"/>
</svg>
