<svg width="238" height="183" viewBox="0 0 238 183" fill="none" xmlns="http://www.w3.org/2000/svg">
<path fill-rule="evenodd" clip-rule="evenodd" d="M114.156 97.5L85.6172 126.039L79.0312 119.453L118.547 79.9375L158.062 119.453L151.477 126.039L122.938 97.5V182.53H114.156V97.5ZM82.2474 141.406H43.931C24.5694 141.406 8.78125 125.68 8.78125 106.281C8.78125 89.6374 20.413 75.6499 36.012 72.0533C35.4295 68.916 35.125 65.6811 35.125 62.375C35.125 33.2765 58.714 9.6875 87.8125 9.6875C110.779 9.6875 130.314 24.3825 137.527 44.8831C144.327 39.3489 153.002 36.0312 162.453 36.0312C183.162 36.0312 200.151 51.9619 201.832 72.237C217.024 76.1009 228.312 89.878 228.312 106.281C228.312 125.641 212.575 141.406 193.163 141.406H154.846V150.188H193.192C217.438 150.188 237.094 130.481 237.094 106.281C237.094 87.8721 225.795 72.1091 209.721 65.5846C205.13 43.6907 185.712 27.25 162.453 27.25C154.876 27.25 147.706 28.995 141.324 32.105C130.763 13.4762 110.756 0.90625 87.8125 0.90625C53.8642 0.90625 26.3438 28.4267 26.3438 62.375C26.3438 63.5881 26.3789 64.7931 26.4482 65.9888C10.8858 72.751 0 88.2721 0 106.281C0 130.53 19.6041 150.188 43.9013 150.188H82.2474V141.406Z" fill="#0066FF"/>
</svg>
