<svg width="25" height="25" viewBox="0 0 25 25" fill="none" xmlns="http://www.w3.org/2000/svg">
<path d="M22.9493 3.51562L21.9532 3.03945C21.5912 2.86646 21.3714 2.49013 21.3985 2.08984L21.4571 1.23613C21.4566 1.06524 21.3749 0.904763 21.237 0.803811C21.0992 0.702859 20.9215 0.673458 20.7584 0.724606C19.8059 1.02597 19.4057 1.83789 18.0071 2.1955L19.3848 6.53593C21.6069 6.40976 22.8983 4.94765 23.142 4.4873C23.3375 4.11504 23.3041 3.74121 22.9493 3.51562V3.51562Z" fill="#0066FF"/>
<path d="M4.24286 0.723996C4.07981 0.672848 3.90216 0.702249 3.76428 0.803201C3.6264 0.904153 3.54471 1.06463 3.54423 1.23552L3.60283 2.08923C3.62995 2.48952 3.41013 2.86585 3.04814 3.03884L2.05068 3.5156C1.69619 3.74177 1.66279 4.1156 1.85966 4.48728C2.10341 4.94763 3.39482 6.40974 5.61689 6.53591L6.99462 2.19548C5.5956 1.83767 5.19521 1.02536 4.24287 0.723994L4.24286 0.723996Z" fill="#0066FF"/>
<path d="M16.1614 1.40507C15.0458 1.42461 13.2475 3.11211 12.802 5.13105V7.94355C12.802 7.94355 18.5051 8.41542 18.8477 7.94355C19.1903 7.47167 19.3834 6.53613 19.3834 6.53613C20.1467 3.94316 17.92 1.37343 16.1614 1.40507H16.1614Z" fill="#0066FF"/>
<path d="M8.83877 1.40507C7.08096 1.37343 4.8544 3.94414 5.61612 6.53535C5.61612 6.53535 5.79776 7.50742 6.24951 7.84922C6.70127 8.19101 12.1858 8.00097 12.1858 8.00097V5.13125C11.7409 3.1123 9.9544 1.42578 8.83877 1.40507H8.83877Z" fill="#0066FF"/>
<path d="M11.2419 6.53533H13.7652C14.0277 4.62889 10.9665 4.61287 11.2419 6.53533Z" fill="#0066FF"/>
<path d="M21.9178 7.53766H3.08208C2.50941 7.53766 2.04517 8.0019 2.04517 8.57457V23.4595C2.04517 24.0322 2.50941 24.4964 3.08208 24.4964H21.9178C22.4905 24.4964 22.9547 24.0322 22.9547 23.4595V8.57457C22.9547 8.0019 22.4905 7.53766 21.9178 7.53766Z" fill="#CFE3E3"/>
<path d="M15.1191 12.5609H9.88062V24.4965H15.1191V12.5609Z" fill="#0066FF"/>
<path d="M23.1896 6.34003H1.81035C1.23768 6.34003 0.773438 6.80427 0.773438 7.37694V11.5242C0.773438 12.0969 1.23768 12.5611 1.81035 12.5611H23.1896C23.7623 12.5611 24.2266 12.0969 24.2266 11.5242V7.37694C24.2266 6.80427 23.7623 6.34003 23.1896 6.34003Z" fill="#E1F0F0"/>
<path d="M15.719 6.34003H9.28076V12.5611H15.719V6.34003Z" fill="#1089FF"/>
</svg>
