<svg width="45" height="25" viewBox="0 0 45 25" fill="none" xmlns="http://www.w3.org/2000/svg">
<rect width="45" height="25" rx="4" fill="#0066FF"/>
<path d="M10.8188 13.4927H7.67285V11.8408H10.8188C11.3667 11.8408 11.8094 11.7523 12.147 11.5752C12.4845 11.3981 12.7308 11.1546 12.8857 10.8447C13.0462 10.5293 13.1265 10.1696 13.1265 9.76562C13.1265 9.38379 13.0462 9.02686 12.8857 8.69482C12.7308 8.35726 12.4845 8.0861 12.147 7.88135C11.8094 7.6766 11.3667 7.57422 10.8188 7.57422H8.31201V18H6.22852V5.91406H10.8188C11.7541 5.91406 12.5482 6.08008 13.2012 6.41211C13.8597 6.73861 14.3605 7.19238 14.7036 7.77344C15.0467 8.34896 15.2183 9.00749 15.2183 9.74902C15.2183 10.5293 15.0467 11.1989 14.7036 11.7578C14.3605 12.3167 13.8597 12.7456 13.2012 13.0444C12.5482 13.3433 11.7541 13.4927 10.8188 13.4927ZM17.9359 5.91406H22.2108C23.1295 5.91406 23.9125 6.05241 24.56 6.3291C25.2074 6.60579 25.7027 7.0153 26.0458 7.55762C26.3944 8.0944 26.5688 8.75846 26.5688 9.5498C26.5688 10.153 26.4581 10.6842 26.2367 11.1436C26.0154 11.6029 25.7027 11.9902 25.2987 12.3057C24.8948 12.6156 24.4133 12.8563 23.8544 13.0278L23.2235 13.335H19.3803L19.3637 11.6831H22.244C22.7421 11.6831 23.1571 11.5946 23.4892 11.4175C23.8212 11.2404 24.0702 10.9997 24.2362 10.6953C24.4078 10.3854 24.4936 10.0368 24.4936 9.64941C24.4936 9.22884 24.4105 8.86361 24.2445 8.55371C24.084 8.23828 23.835 7.99756 23.4975 7.83154C23.1599 7.65999 22.731 7.57422 22.2108 7.57422H20.0194V18H17.9359V5.91406ZM24.8339 18L21.995 12.5713L24.1781 12.563L27.0585 17.8921V18H24.8339ZM39.1312 11.625V12.2891C39.1312 13.2021 39.0122 14.0212 38.7742 14.7461C38.5363 15.471 38.1959 16.0881 37.7532 16.5972C37.316 17.1063 36.7903 17.4964 36.1761 17.7676C35.5618 18.0332 34.8812 18.166 34.1341 18.166C33.3925 18.166 32.7146 18.0332 32.1004 17.7676C31.4917 17.4964 30.9632 17.1063 30.5149 16.5972C30.0667 16.0881 29.7181 15.471 29.469 14.7461C29.2256 14.0212 29.1038 13.2021 29.1038 12.2891V11.625C29.1038 10.7119 29.2256 9.89567 29.469 9.17627C29.7125 8.45133 30.0556 7.83431 30.4983 7.3252C30.9466 6.81055 31.4751 6.42041 32.0838 6.15479C32.698 5.88363 33.3759 5.74805 34.1175 5.74805C34.8646 5.74805 35.5452 5.88363 36.1595 6.15479C36.7737 6.42041 37.3022 6.81055 37.7449 7.3252C38.1876 7.83431 38.528 8.45133 38.7659 9.17627C39.0094 9.89567 39.1312 10.7119 39.1312 11.625ZM37.0477 12.2891V11.6084C37.0477 10.9333 36.9813 10.3384 36.8484 9.82373C36.7212 9.30355 36.5302 8.86914 36.2757 8.52051C36.0267 8.16634 35.7195 7.90072 35.3543 7.72363C34.9891 7.54102 34.5768 7.44971 34.1175 7.44971C33.6582 7.44971 33.2487 7.54102 32.889 7.72363C32.5293 7.90072 32.2221 8.16634 31.9676 8.52051C31.7186 8.86914 31.5276 9.30355 31.3948 9.82373C31.262 10.3384 31.1956 10.9333 31.1956 11.6084V12.2891C31.1956 12.9642 31.262 13.5618 31.3948 14.082C31.5276 14.6022 31.7213 15.0422 31.9759 15.4019C32.236 15.756 32.5459 16.0244 32.9056 16.207C33.2653 16.3841 33.6748 16.4727 34.1341 16.4727C34.5989 16.4727 35.0112 16.3841 35.3709 16.207C35.7306 16.0244 36.035 15.756 36.284 15.4019C36.533 15.0422 36.7212 14.6022 36.8484 14.082C36.9813 13.5618 37.0477 12.9642 37.0477 12.2891Z" fill="white"/>
</svg>
